/* XPM */
static char *Pixmap[] = {
"16 16 256 3",
"000 c #1F1D1E",
"001 c #1F1E1F",
"002 c #212021",
"003 c #222222",
"004 c #232323",
"005 c Gray14",
"006 c #252525",
"007 c #262525",
"008 c #272426",
"009 c Gray15",
"010 c #272727",
"011 c #282727",
"012 c #292728",
"013 c #282828",
"014 c #2A2A2A",
"015 c #2F2F2F",
"016 c #313131",
"017 c #323232",
"018 c Gray20",
"019 c #333434",
"020 c #353334",
"021 c #343434",
"022 c #353535",
"023 c #363435",
"024 c Gray21",
"025 c #373737",
"026 c #393536",
"027 c #383737",
"028 c Gray22",
"029 c #393939",
"030 c #3A3A3A",
"031 c #3C3C3C",
"032 c #14452F",
"033 c #14472F",
"034 c #15472F",
"035 c #154A32",
"036 c #164E34",
"037 c #175036",
"038 c #195439",
"039 c #19573A",
"040 c #1A573B",
"041 c #1B5A3D",
"042 c #204F3D",
"043 c #3C423F",
"044 c #1D5F40",
"045 c #1D5F41",
"046 c #1E6143",
"047 c #1E6147",
"048 c #1F6444",
"049 c #1E6248",
"050 c #1E6249",
"051 c #1F6349",
"052 c #1F644A",
"053 c #255644",
"054 c #2A5445",
"055 c #2C5E47",
"056 c #2C5F4C",
"057 c #206545",
"058 c #206647",
"059 c #20654B",
"060 c #20664B",
"061 c #20664C",
"062 c #20674D",
"063 c #216847",
"064 c #226A48",
"065 c #226A49",
"066 c #226B49",
"067 c #20684D",
"068 c #21684E",
"069 c #21694E",
"070 c #216A4F",
"071 c #236D4B",
"072 c #236E4B",
"073 c #246F4C",
"074 c #2F694E",
"075 c #226C50",
"076 c #226C51",
"077 c #236F52",
"078 c #236F53",
"079 c #256D52",
"080 c #25714E",
"081 c #25734F",
"082 c #267150",
"083 c #247255",
"084 c #257255",
"085 c #267551",
"086 c #2E7654",
"087 c #297D5D",
"088 c #336653",
"089 c #336E57",
"090 c #3A6350",
"091 c #39725C",
"092 c #39725D",
"093 c #397459",
"094 c #3A7A5C",
"095 c #3F7863",
"096 c #424142",
"097 c Gray26",
"098 c #434343",
"099 c #474546",
"100 c #4A504D",
"101 c #4D514F",
"102 c #485C55",
"103 c #515151",
"104 c #555254",
"105 c #575958",
"106 c #5A5A5A",
"107 c #5A5F5C",
"108 c #5E5A5C",
"109 c #406855",
"110 c #4A6056",
"111 c #43715C",
"112 c #49715E",
"113 c #50665D",
"114 c #427661",
"115 c #477D69",
"116 c #527869",
"117 c #517C68",
"118 c #5D7268",
"119 c #5B7A6B",
"120 c #597C6B",
"121 c #605C5D",
"122 c #605D5E",
"123 c #616464",
"124 c #646464",
"125 c Gray42",
"126 c #6E6C6D",
"127 c #7C7B7B",
"128 c #2A8160",
"129 c #2C8563",
"130 c #2D8564",
"131 c #2E8A68",
"132 c #368465",
"133 c #308B69",
"134 c #308D6A",
"135 c #318F6B",
"136 c #33936F",
"137 c #359470",
"138 c #379974",
"139 c #3C9D78",
"140 c #3E9E79",
"141 c #54816B",
"142 c #548572",
"143 c #538F77",
"144 c #5F8173",
"145 c #5E8B77",
"146 c #529275",
"147 c #42A47E",
"148 c #66877A",
"149 c #698779",
"150 c #4BA883",
"151 c #51A987",
"152 c #50AC87",
"153 c #55A986",
"154 c #5CA186",
"155 c #6A9883",
"156 c #7C8E85",
"157 c #719886",
"158 c #71998A",
"159 c #63B793",
"160 c #7CA290",
"161 c #7FA995",
"162 c #70BE9D",
"163 c #77C0A2",
"164 c Gray52",
"165 c #818B87",
"166 c #898787",
"167 c #84908B",
"168 c #939192",
"169 c #84A093",
"170 c #83A799",
"171 c #81B29E",
"172 c #A1A6A4",
"173 c #85C5AC",
"174 c #93C4B2",
"175 c #9DC0B0",
"176 c #B4C8BF",
"177 c #BED0C7",
"178 c #CCCFCE",
"179 c #C4D5CE",
"180 c #CBE4DB",
"181 c #E1E9E6",
"182 c #E7EFEB",
"183 c #E3F2EC",
"184 c #F9F9F9",
"185 c #FDFEFE",
"186 c Gray100",
"187 c black",
"188 c black",
"189 c black",
"190 c black",
"191 c black",
"192 c black",
"193 c black",
"194 c black",
"195 c black",
"196 c black",
"197 c black",
"198 c black",
"199 c black",
"200 c black",
"201 c black",
"202 c black",
"203 c black",
"204 c black",
"205 c black",
"206 c black",
"207 c black",
"208 c black",
"209 c black",
"210 c black",
"211 c black",
"212 c black",
"213 c black",
"214 c black",
"215 c black",
"216 c black",
"217 c black",
"218 c black",
"219 c black",
"220 c black",
"221 c black",
"222 c black",
"223 c black",
"224 c black",
"225 c black",
"226 c black",
"227 c black",
"228 c black",
"229 c black",
"230 c black",
"231 c black",
"232 c black",
"233 c black",
"234 c black",
"235 c black",
"236 c black",
"237 c black",
"238 c black",
"239 c black",
"240 c black",
"241 c black",
"242 c black",
"243 c black",
"244 c black",
"245 c black",
"246 c black",
"247 c black",
"248 c black",
"249 c black",
"250 c black",
"251 c black",
"252 c black",
"253 c black",
"254 c black",
"255 c black",
"171162163173183186186186186186186186186186186186",
"143159152147151180186186186186182161155160177186",
"114153150140138136174186186175086065057045157186",
"164113132139137135131154146081071063048093176186",
"025122123088133134130128085073066064117107168186",
"021098096121102079129087080072094118020007125186",
"015031030029099105054084082141101008010005124186",
"014028024022019023166056145026012013006004106186",
"010021018017104165095083058111043000006003103186",
"009016027127148076078070046044074110011001097186",
"002108167092077075069060045041040039109100126186",
"172144067075068061052115090038038037036055169186",
"053069062059052049170185184156034036035033032186",
"042051050047091179186186186186178119112120149186",
"116089142158181186186186186186186186186186186186",
"186186186186186186186186186186186186186186186186"
};
