/* XPM */
static char *Pixmap[] = {
"64 64 256 3",
"000 c black",
"001 c #040E0A",
"002 c #0C0C0C",
"003 c #05120D",
"004 c #09120E",
"005 c #071911",
"006 c #0B1511",
"007 c #091B13",
"008 c Gray8",
"009 c #151A18",
"010 c #181718",
"011 c Gray11",
"012 c #0B251B",
"013 c #0C291D",
"014 c #0E2D20",
"015 c #0E3221",
"016 c #0F3C2B",
"017 c #1C2421",
"018 c #103225",
"019 c #123628",
"020 c #103926",
"021 c #113C2B",
"022 c Gray14",
"023 c #212825",
"024 c #242D2A",
"025 c #2A2A2A",
"026 c #27302D",
"027 c #28312E",
"028 c Gray20",
"029 c #3A3A3A",
"030 c #13452E",
"031 c #154631",
"032 c #154B32",
"033 c #164F3A",
"034 c #1B4232",
"035 c #1A4A35",
"036 c #184C39",
"037 c #175035",
"038 c #185136",
"039 c #195439",
"040 c #1B5A3D",
"041 c #25483A",
"042 c #28543F",
"043 c #304039",
"044 c #1C5640",
"045 c #1D5E42",
"046 c #1E6143",
"047 c #1E6249",
"048 c #2D5743",
"049 c #315748",
"050 c #315A47",
"051 c #365B49",
"052 c #395C4C",
"053 c #206545",
"054 c #20654B",
"055 c #216847",
"056 c #226A4B",
"057 c #29674F",
"058 c #2A6E4E",
"059 c #226C51",
"060 c #2C6A52",
"061 c #24714D",
"062 c #257253",
"063 c #267658",
"064 c #277855",
"065 c #277859",
"066 c #2C7455",
"067 c #287955",
"068 c #287C5D",
"069 c #30674D",
"070 c #316A4F",
"071 c #376450",
"072 c #316D54",
"073 c #356E59",
"074 c #3E6351",
"075 c #3C6C56",
"076 c #327355",
"077 c #327058",
"078 c #37785E",
"079 c #3D735B",
"080 c #3A7B5D",
"081 c #2A7F60",
"082 c #3D7460",
"083 c Gray26",
"084 c #4B4B4B",
"085 c #41574F",
"086 c #41584F",
"087 c #435A51",
"088 c dimgray",
"089 c #5B5B5B",
"090 c #40795F",
"091 c #417762",
"092 c #417C62",
"093 c #477D68",
"094 c #4F7161",
"095 c #497B68",
"096 c #597869",
"097 c #587E70",
"098 c #605F5F",
"099 c #656565",
"100 c #686767",
"101 c #6D6C6C",
"102 c #727373",
"103 c #797778",
"104 c #7B7B7B",
"105 c #2B8362",
"106 c #2E8866",
"107 c #2E8A68",
"108 c #308D6A",
"109 c #388261",
"110 c #32916D",
"111 c #38906E",
"112 c #359571",
"113 c #369873",
"114 c #399571",
"115 c #3A9A75",
"116 c #3D9E78",
"117 c #3EA17A",
"118 c #458065",
"119 c #468869",
"120 c #4C8168",
"121 c #419775",
"122 c #409E79",
"123 c #489D7D",
"124 c #548472",
"125 c #528B70",
"126 c #5C8374",
"127 c #5D8B75",
"128 c #50987D",
"129 c #5B907A",
"130 c #5F967C",
"131 c #43A27D",
"132 c #49A27E",
"133 c #618274",
"134 c #658579",
"135 c #638C7B",
"136 c #6B8A7B",
"137 c #66927D",
"138 c #46A680",
"139 c #4BA681",
"140 c #4CA983",
"141 c #51AA86",
"142 c #54AD89",
"143 c #5AAE8B",
"144 c #55B08A",
"145 c #5BB18D",
"146 c #5CB390",
"147 c #5DB490",
"148 c #6F8E83",
"149 c #6C9381",
"150 c #6C9C85",
"151 c #7B8A84",
"152 c #729786",
"153 c #729788",
"154 c #73998A",
"155 c #7A9D8D",
"156 c #66AA90",
"157 c #60B390",
"158 c #60B592",
"159 c #64B693",
"160 c #66B695",
"161 c #63B894",
"162 c #66B895",
"163 c #68B996",
"164 c #6ABA98",
"165 c #69BC99",
"166 c #6DBD9A",
"167 c #6FBF9D",
"168 c #7DA190",
"169 c #7EA895",
"170 c #74B59D",
"171 c #71BF9D",
"172 c #76BEA2",
"173 c #73C29F",
"174 c #74C2A0",
"175 c #75C4A1",
"176 c #7BC5A6",
"177 c #7DC1A7",
"178 c Gray51",
"179 c #8B8B8B",
"180 c #959595",
"181 c #9B9B9B",
"182 c #83A595",
"183 c #83A896",
"184 c #84AC9A",
"185 c #8AAA9B",
"186 c #91A79C",
"187 c #8CACA0",
"188 c #87BAA7",
"189 c #8DB3A1",
"190 c #93ADA3",
"191 c #97B2A8",
"192 c #9AB2A8",
"193 c #9FB8AE",
"194 c Gray64",
"195 c #AAAAAA",
"196 c #A4B6AE",
"197 c #A3BDB1",
"198 c #B3B2B2",
"199 c #BBBABA",
"200 c #86C2AC",
"201 c #83C8AB",
"202 c #98C6B5",
"203 c #9AD2BA",
"204 c #A4C2B4",
"205 c #A6C6B9",
"206 c #ABC1B6",
"207 c #ADC4BA",
"208 c #AFC9BD",
"209 c #B3C4BD",
"210 c #B5C8BF",
"211 c #A3D3C0",
"212 c #A7D1C1",
"213 c #A8D7C4",
"214 c #B6CEC2",
"215 c #BACDC4",
"216 c #B7D0C4",
"217 c #BBD1C6",
"218 c #BAD7CD",
"219 c #B8DBCE",
"220 c #BBE0D0",
"221 c #C3C3C3",
"222 c #C0CEC7",
"223 c #C4CCC9",
"224 c Gray80",
"225 c #C5D4CE",
"226 c #C7D7D0",
"227 c #C6D9D0",
"228 c #CBD9D3",
"229 c #D2D3D3",
"230 c #D2DBD7",
"231 c #D7DBD9",
"232 c #D8D7D7",
"233 c #DADBDB",
"234 c #C8E1D8",
"235 c #D0EADF",
"236 c #DAE2DE",
"237 c #D5E9E2",
"238 c #DDE3E1",
"239 c #DAEEE6",
"240 c #E3E4E4",
"241 c #E1E9E5",
"242 c #E5E9E7",
"243 c #E6EBE9",
"244 c #EAEBEA",
"245 c #E3F0EB",
"246 c #EBF2EE",
"247 c #EBF6F2",
"248 c #ECF2F0",
"249 c #EDF5F1",
"250 c #F2F3F3",
"251 c #F7F8F7",
"252 c #F6FAF9",
"253 c #F9F9F9",
"254 c #FAFCFB",
"255 c #FEFEFE",
"255255255255255255255255255255255255255255255255255255255255255255255255255255255255255255255255255255255255255255255255255255255255255255255255255255255255255255255255255255255255255255255255",
"255255255255255255255255255255255255255255255255255255255255255255255255255255255255255255255255255255255255255255255255255255255255255255255255255255255255255255255255255255255255255255255255",
"255255205174176201203213220235239247252255255255255255255255255255255255255255255255255255255255255255255255255255255255255255255255255255255255255255255255255255255255255255255255255255255255",
"255242129174167165161158147146146158162164172177211254255255255255255255255255255255255255255255255255255255255255255255255255255255255255255255255255255255255255255255255255255255255255255255",
"255148077175166163161147145144141140138138138117117160245255255255255255255255255255255255255255255255255255255255255255255255255255255255255255255255255255255255255255255255255255255255255255",
"255133077173166162158146145142141140138138131117117116138219255255255255255255255255255255255255255255255255255255255255255255255255255255255255251243250254255255255255255255255255255255255255",
"255134077167163160157145144142140140138138117117117116115113200252255255255255255255255255255255255255255255255255255255255255255255255255251197080058076090120127137155184192206236255255255255",
"255134072166162158147143142141140140138131131117116116113115113142237255255255255255255255255255255255255255255255255255255255255255255197080056056055055053053053046046046040045168255255255255",
"255133072164159157145144142140140138131131117117116115115113113112113212255255255255255255255255255255255255255255255255255255255228125061056056055055055053053053046046045045040155255255255255",
"255126060163157157143142141140139138131131117116115115115113113112112110170247255255255255255255255255255255255255255255255248169061061056061055055055055053053053046046045045040152255255255255",
"255126060159145143143141140139139131131122116116115115113113112112110110110123234255255255255255255255255255255255255255208109061061056061056055055055055053053046046046045045040149255255255255",
"255133060161143143141141139139132131122122116115115113113113112112110110110108108202255255255255255255255255255255236130061061061061061056056055055055055053046046046046045045040149255255255255",
"255097021092145142141139139132131131122116115115115113112112112110110110110108108107156245255255255255255255251189067061061061061061056061055055055055053053053046046045045045040149255255255255",
"255151000000041132141139132131131122122115115115113112112112110110110110108108108107106114218255255255255217119064061061061061061061056056055055055055053053046046046045045040040149255255255255",
"255255221025000006078140132131122122116115115114113112112110110110110108108108107107106106105188255241150064064061062061061061061056061055056055055053053053046046046045045040040127255255255255",
"255255240250103000000034121131122116115115114113112112110110110110108108108107107106106106105105128109067064061064061061061061061056056055055055055053053053046046045045040040069215255255255255",
"255179029179248224025000006066122116115114114112112111110110110108108108107107106106106105105105105067064061064061061061061061056061055056055055053053053046046046046040045135243255255255255255",
"255017028088089199250104000000034111115112112112111110110110108108108107107106106106106105105105081067064064061061061061061061056056055055055055053053053046046045045070210255255255255255255255",
"255022028088084084103242224028000004060115112112110110110108108108107107106106106105105105105105081067064061061061061061061056061055056055055053053053046053046045149246233181101104255255255255",
"255022028084084084084084195250178000000021108114110108108108108107107106106106106105105105105081081067062061061061061061061056056055055055055053053053046046070214244089002022022088255255255255",
"255022028084084084083083083100233229029000003054112110108107107107106106106105105105105105081081081064061061061061061061056056055056055055053053053046046149249198011010025022022089255255255255",
"255025028084084083084083083083083181250179001000021105110107107106106106106105105105105081081081068064061061061061061056061055056055055053053053046072215244089002022025022022022089254255255255",
"255025027084083083083083083083083029089229232083000003047108107106106105105105105105081081081068068064061061061061061056056055055055055055053053150246198010011025022022022022022088255255255255",
"255025025084083083083083083083029083029029179244180002000019081107106105105105105081081081068068068062061061061061056056055056055055053053076216244089002022025025022022022022022088255255255255",
"255025025083083083083083029083029083029029029084221233084000003045106105105105081081081068068068065062061061061056061055056055055055053150248195011011025022022022022022022022022088254255255255",
"255025025083083083083029083029029029029029029029029104244181002000018068105081081081068068068065068062061061056061055056055055055076214244088002022025025025022025022022022022022084251255255255",
"255025025083083029029029029029029029029029029029029028083199231084000003044105081068068068068065065062061056061055056055055055150248195010011025025025025022025022022022022022022083250255255255",
"255025025083029029083029029029029029029029029028029029028029101238194002000018063081068065065065065062056061055056055055076216244089002022025025025025022022022022022022022022022083250255255255",
"255022025083029029029029029029029029029029029028029028029028028029195233088000001044068068065063065061056056056055055150248195011011025025025025022025022025022022022022022022022083248255255255",
"255022022029029029029029029029029029028029028029028028028028028028028098232195010000014062068063063059056056055076216242088002022025025025025022025022022022022022022022022022022083250255255255",
"255022022029029029029029029029028029029028028029028028028028028028028028028181233098000001039065063061056055150246195010011025025025025025022025025022025022022022022022022022022029244255255255",
"255022022029029029029028029028029028028029028028028028028028028028028028028028088223195011000013054061078208240088008022027025025025025025025022022025022022022022022022022022017029240255255255",
"255022022029029028029028029028028029028028028028028028028028028028028028027028025179255232009013045059204255028000002022025025025025025025022022025022022022022022022022022022022028233255255255",
"255011022029028029028029028029028028028028028028028028028028028028028028028088229255226093062065063056055169229088000000010025025025025022025022022022022022022022022022022022011028229255255255",
"255011022029028029028028028028028028028028028028028028028028028028027028180255254102044068063062059056055053118227195008000002022025022025022025022022022022022022022022011022022025229255255255",
"255011022029028028028028028028028028028028028028028028028028028025098232255199027036063062059062059056053053053053184231089000000010025022022022022022022022022022022022022022011028229255255255",
"255011022028028028028028028028028028028028028028028025028028028181255253101014056063062062059062059056053053053046046092227195010000002022022025022022022022022022022022011022011028229255255255",
"255011022028028028028028028028028028028028027028028028025100238255199026036063063062059062059059059056046053046046046046045184231089000000010022022022022022022022022017022011022025224255255255",
"255011022028028028028028028028028028028028028028025029195255251099013059063062062059062059059059059055046046046046045046045040090227198009000002011022022022022022011022022011017025199255255255",
"255011022028028028028028028025028028028025028025102240255199023036065063059062062059059059059059059053046046046045046045040045040040183233098000000008022022022022022011022011022022198255255255",
"255022011028028028025028028028025028025028083198255250099013059063062059062059059059059059059056059053046046045046045040045040040040040079227198011000002011022022011022011022011022195255255255",
"255011011028028028028025028028025028028103248255198023036063062062059062059059059059059059056059054047045046045045040045040040040040040040039183236099000000008022017022011022011022195255255255",
"255017022028025028025028028025028083199255248089013059063062059062059059059059059059059056059054059046045045045040045040040040040040040039040039079225198011000002010022011017011022195255255255",
"255011011028028025028025028025178251255195023036063062062059059059059059059059059056056056054054054053045045040045040040040040040040039039039039039039182238100000000008011022011022195255255255",
"255011022025028025028025084221255244089013056063062059059059059059059059059059056054059054054054054047040045040040040040040040040039040039039039039038038075226199011000002010017022194255255255",
"255017011028025027025179253255195017036062062059059059059059059059059059056054059054054054054054054046045040040040040040040040039039039039039039039038038038037182238100000000008011180255255255",
"255011011028025088224255244088013054063059059059059059059059059059056054059054056054054054054047054045040040040040040040039039040039039039039038038038038037037037075225224194104100198255255255",
"255010011028180255255194017036062062059059059059059059059056059054059054056054054054054054047047047046040040040040040039040039039039039039039038038038037037037032032032168255255255255255255255",
"255195102229255242088012054062059059059059059059056059054059054056056054054054054054047047047047047046040040040040040039039039039039039039038038038037037037037032032032032071222255255255255255",
"255255255255194009035062059059059059059059056059054059054056054054054054054054047054047047047047057013030040040039039039039039039039038038038038037037037032032032032032032032031136241255255255",
"255255240088012054062059059059059054059056054059054056054054054054054054047054047047047047047124238198022013039040039039039039039038038038038037037037037032032032032032032031031030136255255255",
"255191041031062059059056056059054059054059054056054054054054054054047054047047047047047046187254255255250101003021040039039038038038038038037037037032032032032032032032032030032030133255255255",
"255087033062059054059054059056054056054054054054054054054054047047047047047047047047082225255255255255255255199028007037039038038038038037037035037032032032032032032031031030030030094255255255",
"255087030059054059054056054054054054054054054054054054047047047047047047047047045153250255255255255255255255255253104004020039038037037037037032032032032032032032032030032030030030074255255255",
"255086030054056054054054054054054054054054054047047047047047047047047047045060207255255255255255255255255255255255255224029007032038037037032032032032032032032031031030031030030030052255255255",
"255087016056054054054054054054054054047047047047047047047047047047045047126241255255255255255255255255255255255255255255255179006015037037032032032032032032032030031030030030030030051255255255",
"255086016056047054054054047054047047047047047047047047047045047045047190255255255255255255255255255255255255255255255255255255232083005030032032032032032031030032030030030030030030051255255255",
"255087016054054047054047047047047047047047047047045047047047045091228255255255255255255255255255255255255255255255255255255255255255181009013032032032032030031030030030030030030030042255255255",
"255087016054047047047047047047047047047047045047047045045045154251255255255255255255255255255255255255255255255255255255255255255255255240103043021031030031030030031032035042050074096255255255",
"255086016054047047047047047047045047047045047045047045060209255255255255255255255255255255255255255255255255255255255255255255255255255255255254223186190196209223228238242250251255255255255255",
"255085016047047047045047045047045045045047045045045126241255255255255255255255255255255255255255255255255255255255255255255255255255255255255255255255255255255255255255255255255255255255255255",
"255223049047045047047047057060073082095124135153193255255255255255255255255255255255255255255255255255255255255255255255255255255255255255255255255255255255255255255255255255255255255255255255",
"255255192072126153190197225230243250255255255255255255255255255255255255255255255255255255255255255255255255255255255255255255255255255255255255255255255255255255255255255255255255255255255255",
"255255255255255255255255255255255255255255255255255255255255255255255255255255255255255255255255255255255255255255255255255255255255255255255255255255255255255255255255255255255255255255255255"
};
