/* XPM */
static char *Pixmap[] = {
"32 32 256 3",
"000 c #0C0B0C",
"001 c Gray8",
"002 c #1D1D1D",
"003 c #0C281D",
"004 c #16251F",
"005 c #0E2E22",
"006 c #192621",
"007 c #1F2926",
"008 c #123729",
"009 c #123D29",
"010 c #1D3D2E",
"011 c #201F20",
"012 c Gray13",
"013 c #252223",
"014 c #252525",
"015 c #272E2C",
"016 c #2A2A2A",
"017 c #302D2F",
"018 c Gray20",
"019 c #3A3A3A",
"020 c #13462E",
"021 c #154B32",
"022 c #1A4031",
"023 c #1C4C35",
"024 c #194F3B",
"025 c #175035",
"026 c #185136",
"027 c #195439",
"028 c #1B5A3D",
"029 c #26473A",
"030 c #294036",
"031 c #28493C",
"032 c #284F3F",
"033 c #23513C",
"034 c #1B5A42",
"035 c #1C5A42",
"036 c #1D5A44",
"037 c #1C5E40",
"038 c #1D5D45",
"039 c #1E6142",
"040 c #1D6046",
"041 c #1F6444",
"042 c #1E6349",
"043 c #255040",
"044 c #275E45",
"045 c #2A5644",
"046 c #305A46",
"047 c #335C4A",
"048 c #38554A",
"049 c #3E554C",
"050 c #216042",
"051 c #236144",
"052 c #206645",
"053 c #276447",
"054 c #216149",
"055 c #20664C",
"056 c #26664D",
"057 c #216847",
"058 c #216948",
"059 c #21694E",
"060 c #226D4A",
"061 c #236E4D",
"062 c #246E4B",
"063 c #246F4C",
"064 c #2E694E",
"065 c #226C51",
"066 c #2A6952",
"067 c #24714D",
"068 c #25744F",
"069 c #247154",
"070 c #267551",
"071 c #257456",
"072 c #277558",
"073 c #27795A",
"074 c #287954",
"075 c #2F7856",
"076 c #297D5D",
"077 c #366D53",
"078 c #3D6554",
"079 c #386D58",
"080 c #357356",
"081 c #35765C",
"082 c #3A765A",
"083 c #387B5E",
"084 c #3F7E61",
"085 c #414141",
"086 c Gray27",
"087 c #494949",
"088 c Gray30",
"089 c #515151",
"090 c #555555",
"091 c #585657",
"092 c #5C5B5C",
"093 c #446659",
"094 c #406F5D",
"095 c #4F625A",
"096 c #4B6F5E",
"097 c #43725F",
"098 c #447261",
"099 c #477B67",
"100 c #477E69",
"101 c #4A7C6A",
"102 c #5A6660",
"103 c #517B68",
"104 c #5F726B",
"105 c #5F7F70",
"106 c #656464",
"107 c #6A6A6A",
"108 c #6A7C75",
"109 c #747474",
"110 c #727B77",
"111 c #7A797A",
"112 c #7C7C7C",
"113 c #2A8161",
"114 c #2D8262",
"115 c #2C8563",
"116 c #2C8664",
"117 c #2E8967",
"118 c #2F8A68",
"119 c #2F8C69",
"120 c #308B69",
"121 c #308D6A",
"122 c #32906D",
"123 c #34926E",
"124 c #38906E",
"125 c #359571",
"126 c #379974",
"127 c #389773",
"128 c #399975",
"129 c #3A9C76",
"130 c #3C9C77",
"131 c #3B9E78",
"132 c #3D9E78",
"133 c #3FA17B",
"134 c #428366",
"135 c #4C856A",
"136 c #4B8B6E",
"137 c #439677",
"138 c #419F7A",
"139 c #56826F",
"140 c #5B8574",
"141 c #588876",
"142 c #5C8B75",
"143 c #5D8F77",
"144 c #42A27C",
"145 c #46A37E",
"146 c #45A47F",
"147 c #62927C",
"148 c #64967F",
"149 c #75857F",
"150 c #78817D",
"151 c #46A681",
"152 c #49A681",
"153 c #49A882",
"154 c #4EAA85",
"155 c #50A381",
"156 c #51AA86",
"157 c #52AD88",
"158 c #55AE8A",
"159 c #59A988",
"160 c #5CA888",
"161 c #5CAD8E",
"162 c #5AB18D",
"163 c #5CB18E",
"164 c #5DB490",
"165 c #699282",
"166 c #6B9782",
"167 c #6A9484",
"168 c #6C9783",
"169 c #6E9E88",
"170 c #7E8582",
"171 c #7F8884",
"172 c #7F8D88",
"173 c #769385",
"174 c #709B87",
"175 c #7B9489",
"176 c #7D988B",
"177 c #61AD8C",
"178 c #61B491",
"179 c #65B190",
"180 c #65B995",
"181 c #6FB198",
"182 c #69BC99",
"183 c #73A08B",
"184 c #7AA08E",
"185 c #77A991",
"186 c #79A491",
"187 c #73BC9C",
"188 c #78C4A3",
"189 c #807E7E",
"190 c #858384",
"191 c #848886",
"192 c #898F8C",
"193 c #859D91",
"194 c #8E9390",
"195 c #939292",
"196 c #949293",
"197 c #969595",
"198 c #9A9697",
"199 c Gray61",
"200 c #81A497",
"201 c #84A598",
"202 c #91A79D",
"203 c #8ABBA9",
"204 c #95AAA0",
"205 c #9BADA4",
"206 c #95B2A4",
"207 c #96B4A9",
"208 c #99BCAC",
"209 c #9EB8AE",
"210 c #A1A5A3",
"211 c #A6A4A5",
"212 c #AAABAB",
"213 c #B3B4B3",
"214 c #B9B7B8",
"215 c #B8B9B9",
"216 c Gray74",
"217 c #85C7AC",
"218 c #8DC7B1",
"219 c #96CFB8",
"220 c #ABC3BA",
"221 c #B7C3BE",
"222 c #A7D1C1",
"223 c #A9D7C5",
"224 c #B6C9C1",
"225 c #BBDFD1",
"226 c #C6C4C5",
"227 c #C2CEC9",
"228 c #CAC7C8",
"229 c #C5D4CD",
"230 c #C3D8CE",
"231 c #C8D6CF",
"232 c #C7D6D0",
"233 c #C2DCD2",
"234 c #C9D9D2",
"235 c #CEDBD5",
"236 c #D0CDCE",
"237 c #D5D2D3",
"238 c #D1DDD9",
"239 c #D6E0DB",
"240 c #D7E2DD",
"241 c #D2EAE0",
"242 c #D8EBE4",
"243 c #E4E3E4",
"244 c #E4E4E4",
"245 c #E2E9E6",
"246 c #E5EBE8",
"247 c #E4ECE8",
"248 c #ECEEED",
"249 c #EEF2F0",
"250 c #EDF5F2",
"251 c #F3F5F4",
"252 c #F9FAFA",
"253 c #FAFCFB",
"254 c Gray100",
"255 c black",
"254254254254254254254254254254254254254254254254254254254254254254254254254254254254254254254254",
"232187188217219223225241254254254254254254254254254254254254254254254254254254254254254254254254",
"140179182164158154153151218253254254254254254254254254254254254254254254254254254254254254254254",
"098177180162157153146133131161242254254254254254254254254254254254234148135143166184206249254254",
"097160178158156151144132129126128222254254254254254254254254247169060060052052039039050235254254",
"094159163156152145138129128125125122181250254254254254253208075063060058052041039037053231254254",
"049032155156145138132128127125122122119137233254254230136068067060060057052041039037051229254254",
"243111004081146132128127125123122121119117116203185070070067063060058057052039039037077240254254",
"088112211085022124130125123122121119117116115113074070068063062060057052041039039166246254254254",
"014087089197189006056127122121120117116115114113070068067063060058057052041082202111090216254254",
"016086087086106199088008114122117116115114113076070067067060060057052052174194018013014213254254",
"016085086085085085190190007035117116113113076076070061062060058057084204092011016014016213254254",
"016019085085019019019089196090005072115113073073068060060058058183192017014016014014014212254254",
"014019085019019019019019018109190016024076076073061060058134204091012016016014014013014199254254",
"013019019019019019018019018018085191092003059073061062186191016016016014014014014014014199254254",
"012018019019018019018018018018018018091198015024134205086013016016016014014014014012013197254254",
"011018019018018018018018018018018018197227100055083193019001014016014014014014014012012191254254",
"002018018018018018018018018017106228172038072069057052147110002001016014014014012012012190254254",
"002018018018018018017018019212214078065069069065052039039080176087000013014013012012011112254254",
"002017018018017018017109236149035071069065065065041039037037037142150002001013012012011107254254",
"002017017017017086214213047065071065065065059059039037037028028028064176089000002012011106254254",
"002017017017170237108035071065065065059059059055039037028028028027027027139171013001002106254254",
"001016089226212045065069065065059059059055055055037028028028027027027027025044175107087111253254",
"090195237104036069065065059059059055055055042042035028028027027027027025025025021103239254254254",
"254210043059065065059059055055055055042042042167095020028027027026026025025021021021023173254254",
"093035065059059059055055055055042042042066220254254198010025027025025025021021021020020046254254",
"029042059055055055055042042042042040141245254254254254244102009026025021021021020020020033254254",
"031038055055042042042042040040054207254254254254254254254254212030020021021020020020020023254254",
"029038042042042040042038040099238254254254254254254254254254254249170048027045047078096105254254",
"048034042040040054054056200252254254254254254254254254254254254254254252248251252254254254254254",
"221079101165201209224238254254254254254254254254254254254254254254254254254254254254254254254254",
"254254254254254254254254254254254254254254254254254254254254254254254254254254254254254254254254"
};
